<svg width="45" height="45" viewBox="0 0 45 45" xmlns="http://www.w3.org/2000/svg">
  <g fill="none" fill-rule="evenodd">
    <path d="M22.5 10c0 .6.6 1 1 1h2v3h-2v8h-1v-8h-2v-3h2c.4 0 1-.4 1-1z" fill="#2b191f"/>
    <path d="M12 22c0 0 4 2 7 2s7-2 7-2v12H12V22z" fill="#2b191f"/>
    <path d="M9 36h27v2H9z" fill="#0f0b0c" opacity="0.9"/>
    <g stroke="#efe9e2" stroke-width="1.2">
      <path d="M22.5 10c0 .6.6 1 1 1h2v3h-2v8h-1v-8h-2v-3h2c.4 0 1-.4 1-1z" stroke-linecap="round"/>
      <path d="M12 22c0 0 4 2 7 2s7-2 7-2v12H12V22z"/>
      <path d="M9 36h27" stroke-linecap="round"/>
    </g>
  </g>
</svg>