<svg width="45" height="45" viewBox="0 0 45 45" xmlns="http://www.w3.org/2000/svg">
  <g fill="none" fill-rule="evenodd">
    <path d="M22.5 11.5c.5 0 1 .5 1 1v3h2v-3c0-.5.5-1 1-1h1c.5 0 1 .5 1 1v3h2v-3c0-.5.5-1 1-1h1c.5 0 1 .5 1 1v4.5l-2 2v2l2 2v1.5l-2.5 2.5h-2l-1.5-1.5h-3l-1.5 1.5h-2l-1.5-1.5h-3l-1.5 1.5h-2l-2.5-2.5v-1.5l2-2v-2l-2-2v-4.5c0-.5.5-1 1-1h1c.5 0 1 .5 1 1v3h2v-3c0-.5.5-1 1-1h1c.5 0 1 .5 1 1v3h2v-3c0-.5.5-1 1-1h1z" fill="#fff"/>
    <path d="M22.5 11.5c.5 0 1 .5 1 1v3h2v-3c0-.5.5-1 1-1h1c.5 0 1 .5 1 1v3h2v-3c0-.5.5-1 1-1h1c.5 0 1 .5 1 1v4.5l-2 2v2l2 2v1.5l-2.5 2.5h-2l-1.5-1.5h-3l-1.5 1.5h-2l-1.5-1.5h-3l-1.5 1.5h-2l-2.5-2.5v-1.5l2-2v-2l-2-2v-4.5c0-.5.5-1 1-1h1c.5 0 1 .5 1 1v3h2v-3c0-.5.5-1 1-1h1c.5 0 1 .5 1 1v3h2v-3c0-.5.5-1 1-1h1z" stroke="#000" stroke-width="1.5" stroke-linecap="round"/>
  </g>
</svg>