<svg width="45" height="45" viewBox="0 0 45 45" xmlns="http://www.w3.org/2000/svg">
  <g fill="none" fill-rule="evenodd">
    <path d="M22 10c2 0 3 1 4 2 1 1 2 2 4 2 2 0 3-1 4-2 1-1 2-2 4-2 2 0 3 1 4 2 1 1 1 2 1 3 0 1-1 2-2 3-1 1-2 2-2 3 0 1 1 2 2 3 1 1 2 2 2 4 0 2-1 3-2 4-1 1-2 2-4 2-2 0-3-1-4-2-1-1-2-2-4-2-2 0-3 1-4 2-1 1-2 2-4 2-2 0-3-1-4-2-1-1-2-2-2-4 0-2 1-3 2-4 1-1 2-2 2-3 0-1-1-2-2-3-1-1-2-2-2-3 0-1 1-2 2-3 1-1 2-2 4-2z" fill="#fff"/>
    <path d="M22 10c2 0 3 1 4 2 1 1 2 2 4 2 2 0 3-1 4-2 1-1 2-2 4-2 2 0 3 1 4 2 1 1 1 2 1 3 0 1-1 2-2 3-1 1-2 2-2 3 0 1 1 2 2 3 1 1 2 2 2 4 0 2-1 3-2 4-1 1-2 2-4 2-2 0-3-1-4-2-1-1-2-2-4-2-2 0-3 1-4 2-1 1-2 2-4 2-2 0-3-1-4-2-1-1-2-2-2-4 0-2 1-3 2-4 1-1 2-2 2-3 0-1-1-2-2-3-1-1-2-2-2-3 0-1 1-2 2-3 1-1 2-2 4-2z" stroke="#000" stroke-width="1.5" stroke-linecap="round"/>
  </g>
</svg>