<svg width="45" height="45" viewBox="0 0 45 45" xmlns="http://www.w3.org/2000/svg">
  <g fill="none" fill-rule="evenodd">
    <path d="M7 13a2 2 0 1 1 4 0 2 2 0 1 1-4 0zM18 9a2 2 0 1 1 4 0 2 2 0 1 1-4 0zM31 13a2 2 0 1 1 4 0 2 2 0 1 1-4 0z" fill="#efe9e2"/>
    <path d="M11 18h23l-3 3h-17l-3-3z" fill="#efe9e2"/>
    <path d="M16 21h13l-2 3h-9l-2-3z" fill="#efe9e2"/>
    <g stroke="#2b191f" stroke-width="1.2">
      <path d="M7 13a2 2 0 1 1 4 0 2 2 0 1 1-4 0z"/>
      <path d="M18 9a2 2 0 1 1 4 0 2 2 0 1 1-4 0z"/>
      <path d="M31 13a2 2 0 1 1 4 0 2 2 0 1 1-4 0z"/>
      <path d="M11 18h23l-3 3h-17l-3-3z" stroke-linecap="round"/>
      <path d="M16 21h13l-2 3h-9l-2-3z"/>
    </g>
  </g>
</svg>