<svg width="45" height="45" viewBox="0 0 45 45" xmlns="http://www.w3.org/2000/svg">
  <g fill="none" fill-rule="evenodd">
    <path d="M8 12a2 2 0 1 1 4 0 2 2 0 1 1-4 0zm5-4a2 2 0 1 1 4 0 2 2 0 1 1-4 0zm10 0a2 2 0 1 1 4 0 2 2 0 1 1-4 0zm5 4a2 2 0 1 1 4 0 2 2 0 1 1-4 0zm-10 4a2 2 0 1 1 4 0 2 2 0 1 1-4 0z" fill="#fff"/>
    <path d="M8 12a2 2 0 1 1 4 0 2 2 0 1 1-4 0zm5-4a2 2 0 1 1 4 0 2 2 0 1 1-4 0zm10 0a2 2 0 1 1 4 0 2 2 0 1 1-4 0zm5 4a2 2 0 1 1 4 0 2 2 0 1 1-4 0zm-10 4a2 2 0 1 1 4 0 2 2 0 1 1-4 0z" stroke="#000" stroke-width="1.5" stroke-linecap="round"/>
    <path d="M12 18h21l-3 3h-15l-3-3z" fill="#fff" stroke="#000" stroke-width="1.5" stroke-linecap="round"/>
    <path d="M18 21h9l-2 3h-5l-2-3z" fill="#fff" stroke="#000" stroke-width="1.5" stroke-linecap="round"/>
  </g>
</svg>